<svg width="16" height="16" viewBox="0 0 16 16" fill="none" xmlns="http://www.w3.org/2000/svg">
<path d="M8.75625 4.69375C8.53438 4.49375 8.19063 4.44375 7.94688 4.56563C7.70312 4.6875 7.47188 4.95312 7.47188 5.22188L7.47194 6.97188L4.75 7C4.3375 7 4 7.3375 4 7.75V8.25C4 8.66562 4.3375 9 4.75 9L7.5 8.97188V10.7219C7.5 11.0197 7.67675 11.2894 7.94938 11.4094C8.22281 11.5285 8.54031 11.4748 8.75906 11.2727L11.7591 8.49922C11.9125 8.38438 12 8.18437 12 7.975C11.9902 7.73184 11.9102 7.56094 11.7549 7.42031L8.75625 4.69375ZM8 0C3.58125 0 0 3.58125 0 8C0 12.4187 3.58125 16 8 16C12.4187 16 16 12.4187 16 8C16 3.58125 12.4187 0 8 0ZM8 14.5C4.41563 14.5 1.5 11.5841 1.5 8C1.5 4.41594 4.41563 1.5 8 1.5C11.5844 1.5 14.5 4.41594 14.5 8C14.5 11.5841 11.5844 14.5 8 14.5Z" fill="#374164"/>
</svg>
