<svg xmlns="http://www.w3.org/2000/svg" xmlns:xlink="http://www.w3.org/1999/xlink" width="85" height="85" viewBox="0 0 85 85">
  <defs>
    <clipPath id="clip-path">
      <rect width="85" height="85" fill="none"/>
    </clipPath>
  </defs>
  <g id="Repeat_Grid_1" data-name="Repeat Grid 1" clip-path="url(#clip-path)">
    <g transform="translate(-628 -477)">
      <circle id="Ellipse_2" data-name="Ellipse 2" cx="2.5" cy="2.5" r="2.5" transform="translate(628 477)" fill="#3751ff"/>
    </g>
    <g transform="translate(-615 -477)">
      <circle id="Ellipse_2-2" data-name="Ellipse 2" cx="2.5" cy="2.5" r="2.5" transform="translate(628 477)" fill="#3751ff"/>
    </g>
    <g transform="translate(-602 -477)">
      <circle id="Ellipse_2-3" data-name="Ellipse 2" cx="2.5" cy="2.5" r="2.5" transform="translate(628 477)" fill="#3751ff"/>
    </g>
    <g transform="translate(-589 -477)">
      <circle id="Ellipse_2-4" data-name="Ellipse 2" cx="2.5" cy="2.5" r="2.5" transform="translate(628 477)" fill="#3751ff"/>
    </g>
    <g transform="translate(-576 -477)">
      <circle id="Ellipse_2-5" data-name="Ellipse 2" cx="2.5" cy="2.5" r="2.5" transform="translate(628 477)" fill="#3751ff"/>
    </g>
    <g transform="translate(-563 -477)">
      <circle id="Ellipse_2-6" data-name="Ellipse 2" cx="2.5" cy="2.5" r="2.5" transform="translate(628 477)" fill="#3751ff"/>
    </g>
    <g transform="translate(-550 -477)">
      <circle id="Ellipse_2-7" data-name="Ellipse 2" cx="2.5" cy="2.5" r="2.5" transform="translate(628 477)" fill="#3751ff"/>
    </g>
    <g transform="translate(-628 -464)">
      <circle id="Ellipse_2-8" data-name="Ellipse 2" cx="2.5" cy="2.5" r="2.5" transform="translate(628 477)" fill="#3751ff"/>
    </g>
    <g transform="translate(-615 -464)">
      <circle id="Ellipse_2-9" data-name="Ellipse 2" cx="2.5" cy="2.5" r="2.5" transform="translate(628 477)" fill="#3751ff"/>
    </g>
    <g transform="translate(-602 -464)">
      <circle id="Ellipse_2-10" data-name="Ellipse 2" cx="2.5" cy="2.5" r="2.5" transform="translate(628 477)" fill="#3751ff"/>
    </g>
    <g transform="translate(-589 -464)">
      <circle id="Ellipse_2-11" data-name="Ellipse 2" cx="2.5" cy="2.5" r="2.5" transform="translate(628 477)" fill="#3751ff"/>
    </g>
    <g transform="translate(-576 -464)">
      <circle id="Ellipse_2-12" data-name="Ellipse 2" cx="2.5" cy="2.5" r="2.5" transform="translate(628 477)" fill="#3751ff"/>
    </g>
    <g transform="translate(-563 -464)">
      <circle id="Ellipse_2-13" data-name="Ellipse 2" cx="2.5" cy="2.5" r="2.5" transform="translate(628 477)" fill="#3751ff"/>
    </g>
    <g transform="translate(-550 -464)">
      <circle id="Ellipse_2-14" data-name="Ellipse 2" cx="2.5" cy="2.5" r="2.5" transform="translate(628 477)" fill="#3751ff"/>
    </g>
    <g transform="translate(-628 -451)">
      <circle id="Ellipse_2-15" data-name="Ellipse 2" cx="2.5" cy="2.5" r="2.5" transform="translate(628 477)" fill="#3751ff"/>
    </g>
    <g transform="translate(-615 -451)">
      <circle id="Ellipse_2-16" data-name="Ellipse 2" cx="2.5" cy="2.5" r="2.5" transform="translate(628 477)" fill="#3751ff"/>
    </g>
    <g transform="translate(-602 -451)">
      <circle id="Ellipse_2-17" data-name="Ellipse 2" cx="2.5" cy="2.5" r="2.5" transform="translate(628 477)" fill="#3751ff"/>
    </g>
    <g transform="translate(-589 -451)">
      <circle id="Ellipse_2-18" data-name="Ellipse 2" cx="2.5" cy="2.5" r="2.5" transform="translate(628 477)" fill="#3751ff"/>
    </g>
    <g transform="translate(-576 -451)">
      <circle id="Ellipse_2-19" data-name="Ellipse 2" cx="2.5" cy="2.5" r="2.5" transform="translate(628 477)" fill="#3751ff"/>
    </g>
    <g transform="translate(-563 -451)">
      <circle id="Ellipse_2-20" data-name="Ellipse 2" cx="2.5" cy="2.5" r="2.5" transform="translate(628 477)" fill="#3751ff"/>
    </g>
    <g transform="translate(-550 -451)">
      <circle id="Ellipse_2-21" data-name="Ellipse 2" cx="2.5" cy="2.5" r="2.5" transform="translate(628 477)" fill="#3751ff"/>
    </g>
    <g transform="translate(-628 -438)">
      <circle id="Ellipse_2-22" data-name="Ellipse 2" cx="2.5" cy="2.5" r="2.5" transform="translate(628 477)" fill="#3751ff"/>
    </g>
    <g transform="translate(-615 -438)">
      <circle id="Ellipse_2-23" data-name="Ellipse 2" cx="2.5" cy="2.5" r="2.5" transform="translate(628 477)" fill="#3751ff"/>
    </g>
    <g transform="translate(-602 -438)">
      <circle id="Ellipse_2-24" data-name="Ellipse 2" cx="2.5" cy="2.5" r="2.5" transform="translate(628 477)" fill="#3751ff"/>
    </g>
    <g transform="translate(-589 -438)">
      <circle id="Ellipse_2-25" data-name="Ellipse 2" cx="2.5" cy="2.5" r="2.5" transform="translate(628 477)" fill="#3751ff"/>
    </g>
    <g transform="translate(-576 -438)">
      <circle id="Ellipse_2-26" data-name="Ellipse 2" cx="2.5" cy="2.5" r="2.5" transform="translate(628 477)" fill="#3751ff"/>
    </g>
    <g transform="translate(-563 -438)">
      <circle id="Ellipse_2-27" data-name="Ellipse 2" cx="2.5" cy="2.5" r="2.5" transform="translate(628 477)" fill="#3751ff"/>
    </g>
    <g transform="translate(-550 -438)">
      <circle id="Ellipse_2-28" data-name="Ellipse 2" cx="2.5" cy="2.5" r="2.5" transform="translate(628 477)" fill="#3751ff"/>
    </g>
    <g transform="translate(-628 -425)">
      <circle id="Ellipse_2-29" data-name="Ellipse 2" cx="2.5" cy="2.5" r="2.5" transform="translate(628 477)" fill="#3751ff"/>
    </g>
    <g transform="translate(-615 -425)">
      <circle id="Ellipse_2-30" data-name="Ellipse 2" cx="2.5" cy="2.5" r="2.5" transform="translate(628 477)" fill="#3751ff"/>
    </g>
    <g transform="translate(-602 -425)">
      <circle id="Ellipse_2-31" data-name="Ellipse 2" cx="2.5" cy="2.5" r="2.5" transform="translate(628 477)" fill="#3751ff"/>
    </g>
    <g transform="translate(-589 -425)">
      <circle id="Ellipse_2-32" data-name="Ellipse 2" cx="2.5" cy="2.5" r="2.5" transform="translate(628 477)" fill="#3751ff"/>
    </g>
    <g transform="translate(-576 -425)">
      <circle id="Ellipse_2-33" data-name="Ellipse 2" cx="2.5" cy="2.5" r="2.5" transform="translate(628 477)" fill="#3751ff"/>
    </g>
    <g transform="translate(-563 -425)">
      <circle id="Ellipse_2-34" data-name="Ellipse 2" cx="2.5" cy="2.5" r="2.5" transform="translate(628 477)" fill="#3751ff"/>
    </g>
    <g transform="translate(-550 -425)">
      <circle id="Ellipse_2-35" data-name="Ellipse 2" cx="2.5" cy="2.5" r="2.5" transform="translate(628 477)" fill="#3751ff"/>
    </g>
    <g transform="translate(-628 -412)">
      <circle id="Ellipse_2-36" data-name="Ellipse 2" cx="2.5" cy="2.5" r="2.5" transform="translate(628 477)" fill="#3751ff"/>
    </g>
    <g transform="translate(-615 -412)">
      <circle id="Ellipse_2-37" data-name="Ellipse 2" cx="2.5" cy="2.5" r="2.5" transform="translate(628 477)" fill="#3751ff"/>
    </g>
    <g transform="translate(-602 -412)">
      <circle id="Ellipse_2-38" data-name="Ellipse 2" cx="2.5" cy="2.5" r="2.5" transform="translate(628 477)" fill="#3751ff"/>
    </g>
    <g transform="translate(-589 -412)">
      <circle id="Ellipse_2-39" data-name="Ellipse 2" cx="2.5" cy="2.5" r="2.5" transform="translate(628 477)" fill="#3751ff"/>
    </g>
    <g transform="translate(-576 -412)">
      <circle id="Ellipse_2-40" data-name="Ellipse 2" cx="2.5" cy="2.5" r="2.5" transform="translate(628 477)" fill="#3751ff"/>
    </g>
    <g transform="translate(-563 -412)">
      <circle id="Ellipse_2-41" data-name="Ellipse 2" cx="2.5" cy="2.5" r="2.5" transform="translate(628 477)" fill="#3751ff"/>
    </g>
    <g transform="translate(-550 -412)">
      <circle id="Ellipse_2-42" data-name="Ellipse 2" cx="2.5" cy="2.5" r="2.5" transform="translate(628 477)" fill="#3751ff"/>
    </g>
    <g transform="translate(-628 -399)">
      <circle id="Ellipse_2-43" data-name="Ellipse 2" cx="2.5" cy="2.5" r="2.5" transform="translate(628 477)" fill="#3751ff"/>
    </g>
    <g transform="translate(-615 -399)">
      <circle id="Ellipse_2-44" data-name="Ellipse 2" cx="2.5" cy="2.5" r="2.5" transform="translate(628 477)" fill="#3751ff"/>
    </g>
    <g transform="translate(-602 -399)">
      <circle id="Ellipse_2-45" data-name="Ellipse 2" cx="2.5" cy="2.5" r="2.5" transform="translate(628 477)" fill="#3751ff"/>
    </g>
    <g transform="translate(-589 -399)">
      <circle id="Ellipse_2-46" data-name="Ellipse 2" cx="2.5" cy="2.5" r="2.5" transform="translate(628 477)" fill="#3751ff"/>
    </g>
    <g transform="translate(-576 -399)">
      <circle id="Ellipse_2-47" data-name="Ellipse 2" cx="2.5" cy="2.5" r="2.5" transform="translate(628 477)" fill="#3751ff"/>
    </g>
    <g transform="translate(-563 -399)">
      <circle id="Ellipse_2-48" data-name="Ellipse 2" cx="2.5" cy="2.5" r="2.5" transform="translate(628 477)" fill="#3751ff"/>
    </g>
    <g transform="translate(-550 -399)">
      <circle id="Ellipse_2-49" data-name="Ellipse 2" cx="2.5" cy="2.5" r="2.5" transform="translate(628 477)" fill="#3751ff"/>
    </g>
  </g>
</svg>
