<svg xmlns="http://www.w3.org/2000/svg" width="85.5" height="71.256" viewBox="0 0 85.5 71.256">
  <g id="Group_19" data-name="Group 19" transform="translate(-748 -1296.163)">
    <path id="Path_2" data-name="Path 2" d="M61.793,35.894C44.2,47.62,4.59,49.1-3.249,44.505S-15.685,7.256-13.09.259,48.077-34.911,59.2-20.083,79.382,24.169,61.793,35.894Z" transform="translate(761.818 1320.497)" fill="#673ab7" opacity="0.17"/>
    <g id="edit" transform="translate(774 1317.121)">
      <path id="Path_5" data-name="Path 5" d="M14.676,4H4.817A2.817,2.817,0,0,0,2,6.817V26.535a2.817,2.817,0,0,0,2.817,2.817H24.535a2.817,2.817,0,0,0,2.817-2.817V16.676" transform="translate(0 0.866)" fill="none" stroke="#673ab7" stroke-linecap="round" stroke-linejoin="round" stroke-width="2"/>
      <path id="Path_6" data-name="Path 6" d="M22.789,2.754a2.988,2.988,0,0,1,4.225,4.225l-13.38,13.38L8,21.768l1.408-5.634Z" transform="translate(2.451 0)" fill="none" stroke="#673ab7" stroke-linecap="round" stroke-linejoin="round" stroke-width="2"/>
    </g>
  </g>
</svg>
