<svg xmlns="http://www.w3.org/2000/svg" width="20.213" height="21.43" viewBox="0 0 20.213 21.43">
  <path id="github" d="M8.462,17.613C3.846,19,3.846,15.306,2,14.844m12.923,5.538V16.81a3.111,3.111,0,0,0-.868-2.409C16.954,14.078,20,12.979,20,7.939a5.021,5.021,0,0,0-1.384-3.461A4.68,4.68,0,0,0,18.532,1S17.443.675,14.923,2.364a12.351,12.351,0,0,0-6.462,0C5.942.675,4.852,1,4.852,1a4.68,4.68,0,0,0-.083,3.48A5.022,5.022,0,0,0,3.385,7.967c0,5,3.046,6.1,5.945,6.462a3.111,3.111,0,0,0-.868,2.382v3.572" transform="translate(-0.787 0.047)" fill="none" stroke="#828282" stroke-linecap="round" stroke-linejoin="round" stroke-width="2"/>
</svg>
