<svg xmlns="http://www.w3.org/2000/svg" width="15.795" height="16.857" viewBox="0 0 15.795 16.857">
  <path id="github" d="M7.273,14.552C3.507,15.682,3.507,12.669,2,12.293m10.546,4.52V13.9a2.539,2.539,0,0,0-.708-1.966c2.365-.264,4.851-1.16,4.851-5.273A4.1,4.1,0,0,0,15.56,3.834a3.819,3.819,0,0,0-.068-2.84S14.6.73,12.546,2.108a10.079,10.079,0,0,0-5.273,0C5.217.73,4.328.993,4.328.993a3.819,3.819,0,0,0-.068,2.84A4.1,4.1,0,0,0,3.13,6.681c0,4.083,2.486,4.979,4.851,5.273A2.539,2.539,0,0,0,7.273,13.9v2.915" transform="translate(-1.394 -0.455)" fill="none" stroke="#673ab7" stroke-linecap="round" stroke-linejoin="round" stroke-width="1"/>
</svg>
