<svg xmlns="http://www.w3.org/2000/svg" width="92" height="16.718" viewBox="0 0 92 16.718">
  <path id="Union_3" data-name="Union 3" d="M82.262,12.2l-4.782,2.515.913-5.324-3.87-3.769,5.348-.781L82.262,0l2.391,4.844L90,5.626,86.131,9.394l.913,5.324Zm-18.631,0-4.782,2.515.913-5.324L55.892,5.626l5.348-.781L63.63,0l2.391,4.844,5.348.781L67.5,9.394l.913,5.324ZM45,12.2l-4.782,2.515.913-5.324L37.261,5.626l5.347-.781L45,0l2.391,4.844,5.347.781L48.869,9.394l.913,5.324Zm-18.631,0-4.782,2.515L22.5,9.394,18.631,5.626l5.347-.781L26.369,0,28.76,4.844l5.347.781L30.238,9.394l.913,5.324Zm-18.631,0L2.956,14.718l.913-5.324L0,5.626l5.347-.781L7.738,0l2.391,4.844,5.347.781L11.607,9.394l.913,5.324Z" transform="translate(1 1)" fill="#fbcd2a" stroke="#fbcd2a" stroke-linecap="round" stroke-linejoin="round" stroke-width="2"/>
</svg>
